# xmcd
#
# Track frame offsets: 
#        182
#        19007
#        31732
#        52500
#        66547
#        84857
#        92075
#        105797
#        126130
#        142347
#        156687
#        173512
#
# Disc length: 2495 seconds
#
# Revision: 3
# Processed by: cddbd v1.5.2PL0 Copyright (c) Steve Scherf et al.
# Submitted via: ExactAudioCopy v0.95b4
#
DISCID=9009bd0c
DTITLE=Pino Daniele - Nero A Metà
DYEAR=1980
DGENRE=Blues
TTITLE0=I Say I'sto Ccà
TTITLE1=Musica Musica
TTITLE2=Quanno Chiove
TTITLE3=Puozze Passà'  Nu Guaio
TTITLE4=Voglio Di Più
TTITLE5=Appocundria
TTITLE6=A Me Me Piace 'o Blues
TTITLE7=E So' Cuntento 'e Stà'
TTITLE8=Nun Me Scoccià'
TTITLE9=Alleria
TTITLE10=A Testa In Giù
TTITLE11=Sotto 'o Sole
EXTD=
EXTT0=
EXTT1=
EXTT2=
EXTT3=
EXTT4=
EXTT5=
EXTT6=
EXTT7=
EXTT8=
EXTT9=
EXTT10=
EXTT11=
PLAYORDER=
